<svg width="85" height="16" viewBox="0 0 85 16" fill="none" xmlns="http://www.w3.org/2000/svg">
<path d="M11.7552 8.39628L5.61035 2.25248C5.53289 2.17346 5.4406 2.11049 5.33877 2.06716C5.23694 2.02384 5.12757 2.00102 5.01691 2H0.841763C0.618513 2 0.404408 2.08867 0.246547 2.2465C0.0886854 2.40434 0 2.61841 0 2.84162V7.01603C0.00093974 7.23888 0.0902422 7.45226 0.24832 7.60937L6.39319 13.7532C6.47137 13.8314 6.5642 13.8935 6.66639 13.9358C6.76858 13.9782 6.87812 14 6.98874 14C7.09936 14 7.20889 13.9782 7.31108 13.9358C7.41327 13.8935 7.50611 13.8314 7.58428 13.7532L11.751 9.58717C11.8296 9.50928 11.892 9.41668 11.9347 9.31466C11.9774 9.21264 11.9996 9.1032 12 8.9926C12.0004 8.88199 11.979 8.7724 11.937 8.67008C11.895 8.56776 11.8332 8.47472 11.7552 8.39628V8.39628ZM2.37798 5.07611C2.2398 5.07611 2.10472 5.03514 1.98982 4.95838C1.87493 4.88162 1.78538 4.77253 1.7325 4.64488C1.67962 4.51724 1.66578 4.37679 1.69274 4.24129C1.7197 4.10578 1.78624 3.98131 1.88395 3.88362C1.98166 3.78593 2.10615 3.7194 2.24168 3.69245C2.37721 3.66549 2.51768 3.67933 2.64535 3.7322C2.77301 3.78507 2.88213 3.8746 2.9589 3.98948C3.03567 4.10435 3.07664 4.23941 3.07664 4.37756C3.07664 4.56283 3.00303 4.74051 2.87201 4.87151C2.74098 5.00251 2.56328 5.07611 2.37798 5.07611V5.07611Z" fill="#FF1E2C"/>
<path d="M18.056 12V3.6H18.98V7.356H23.804V3.6H24.728V12H23.804V8.184H18.98V12H18.056ZM26.4133 9.072C26.4133 8.64 26.4853 8.24 26.6293 7.872C26.7733 7.504 26.9693 7.184 27.2173 6.912C27.4733 6.64 27.7773 6.428 28.1293 6.276C28.4813 6.124 28.8573 6.048 29.2573 6.048C29.6653 6.048 30.0413 6.124 30.3853 6.276C30.7373 6.428 31.0413 6.64 31.2973 6.912C31.5533 7.184 31.7533 7.504 31.8973 7.872C32.0413 8.24 32.1133 8.64 32.1133 9.072C32.1133 9.504 32.0373 9.908 31.8853 10.284C31.7413 10.66 31.5413 10.984 31.2853 11.256C31.0373 11.52 30.7373 11.732 30.3853 11.892C30.0333 12.044 29.6573 12.12 29.2573 12.12C28.8573 12.12 28.4813 12.044 28.1293 11.892C27.7853 11.732 27.4853 11.516 27.2293 11.244C26.9813 10.972 26.7813 10.652 26.6293 10.284C26.4853 9.908 26.4133 9.504 26.4133 9.072ZM29.2573 11.34C29.8253 11.34 30.2973 11.128 30.6733 10.704C31.0573 10.272 31.2493 9.732 31.2493 9.084C31.2493 8.436 31.0573 7.896 30.6733 7.464C30.2973 7.032 29.8253 6.816 29.2573 6.816C28.6893 6.816 28.2173 7.032 27.8413 7.464C27.4653 7.896 27.2773 8.436 27.2773 9.084C27.2773 9.732 27.4653 10.272 27.8413 10.704C28.2173 11.128 28.6893 11.34 29.2573 11.34ZM33.65 12V6.144H34.526V7.056C34.75 6.72 35.006 6.468 35.294 6.3C35.582 6.132 35.906 6.048 36.266 6.048C36.674 6.048 37.034 6.152 37.346 6.36C37.666 6.568 37.906 6.844 38.066 7.188C38.29 6.812 38.566 6.528 38.894 6.336C39.222 6.144 39.598 6.048 40.022 6.048C40.606 6.048 41.082 6.252 41.45 6.66C41.826 7.06 42.014 7.58 42.014 8.22V12H41.138V8.436C41.138 7.932 41.006 7.532 40.742 7.236C40.486 6.932 40.138 6.78 39.698 6.78C39.394 6.78 39.118 6.856 38.87 7.008C38.622 7.16 38.41 7.392 38.234 7.704C38.25 7.784 38.262 7.868 38.27 7.956C38.278 8.044 38.282 8.132 38.282 8.22V12H37.406V8.436C37.406 7.932 37.274 7.532 37.01 7.236C36.746 6.932 36.394 6.78 35.954 6.78C35.658 6.78 35.39 6.852 35.15 6.996C34.91 7.14 34.702 7.356 34.526 7.644V12H33.65ZM48.6227 11.328C48.2867 11.592 47.9387 11.788 47.5787 11.916C47.2187 12.044 46.8347 12.108 46.4267 12.108C46.0187 12.108 45.6347 12.032 45.2747 11.88C44.9227 11.72 44.6147 11.504 44.3507 11.232C44.0947 10.96 43.8907 10.64 43.7387 10.272C43.5947 9.896 43.5227 9.496 43.5227 9.072C43.5227 8.648 43.5907 8.252 43.7267 7.884C43.8707 7.508 44.0667 7.188 44.3147 6.924C44.5627 6.652 44.8547 6.44 45.1907 6.288C45.5267 6.128 45.8907 6.048 46.2827 6.048C46.6667 6.048 47.0227 6.124 47.3507 6.276C47.6787 6.428 47.9627 6.636 48.2027 6.9C48.4427 7.156 48.6307 7.468 48.7667 7.836C48.9027 8.196 48.9707 8.584 48.9707 9V9.264H44.3747C44.4147 9.856 44.6347 10.352 45.0347 10.752C45.4347 11.144 45.9107 11.34 46.4627 11.34C46.7667 11.34 47.0587 11.288 47.3387 11.184C47.6267 11.072 47.8707 10.924 48.0707 10.74L48.6227 11.328ZM46.2707 6.804C45.7907 6.804 45.3787 6.976 45.0347 7.32C44.6907 7.664 44.4787 8.104 44.3987 8.64H48.1067C48.0427 8.112 47.8387 7.676 47.4947 7.332C47.1587 6.98 46.7507 6.804 46.2707 6.804ZM53.4352 12V3.6H56.2192C56.8352 3.6 57.3992 3.708 57.9112 3.924C58.4312 4.14 58.8752 4.436 59.2432 4.812C59.6112 5.18 59.8992 5.624 60.1072 6.144C60.3152 6.656 60.4192 7.208 60.4192 7.8C60.4192 8.392 60.3152 8.948 60.1072 9.468C59.9072 9.98 59.6232 10.424 59.2552 10.8C58.8872 11.168 58.4432 11.46 57.9232 11.676C57.4032 11.892 56.8352 12 56.2192 12H53.4352ZM56.2792 4.428H54.3592V11.172H56.2792C56.7272 11.172 57.1472 11.088 57.5392 10.92C57.9312 10.744 58.2712 10.508 58.5592 10.212C58.8472 9.908 59.0712 9.552 59.2312 9.144C59.3992 8.728 59.4832 8.28 59.4832 7.8C59.4832 7.32 59.3992 6.876 59.2312 6.468C59.0712 6.052 58.8472 5.696 58.5592 5.4C58.2712 5.096 57.9312 4.86 57.5392 4.692C57.1472 4.516 56.7272 4.428 56.2792 4.428ZM66.8337 11.328C66.4977 11.592 66.1497 11.788 65.7897 11.916C65.4297 12.044 65.0457 12.108 64.6377 12.108C64.2297 12.108 63.8457 12.032 63.4857 11.88C63.1337 11.72 62.8257 11.504 62.5617 11.232C62.3057 10.96 62.1017 10.64 61.9497 10.272C61.8057 9.896 61.7337 9.496 61.7337 9.072C61.7337 8.648 61.8017 8.252 61.9377 7.884C62.0817 7.508 62.2777 7.188 62.5257 6.924C62.7737 6.652 63.0657 6.44 63.4017 6.288C63.7377 6.128 64.1017 6.048 64.4937 6.048C64.8777 6.048 65.2337 6.124 65.5617 6.276C65.8897 6.428 66.1737 6.636 66.4137 6.9C66.6537 7.156 66.8417 7.468 66.9777 7.836C67.1137 8.196 67.1817 8.584 67.1817 9V9.264H62.5857C62.6257 9.856 62.8457 10.352 63.2457 10.752C63.6457 11.144 64.1217 11.34 64.6737 11.34C64.9777 11.34 65.2697 11.288 65.5497 11.184C65.8377 11.072 66.0817 10.924 66.2817 10.74L66.8337 11.328ZM64.4817 6.804C64.0017 6.804 63.5897 6.976 63.2457 7.32C62.9017 7.664 62.6897 8.104 62.6097 8.64H66.3177C66.2537 8.112 66.0497 7.676 65.7057 7.332C65.3697 6.98 64.9617 6.804 64.4817 6.804ZM71.3651 11.316C71.6851 11.316 71.9851 11.256 72.2651 11.136C72.5531 11.016 72.7971 10.844 72.9971 10.62L73.5371 11.16C73.2571 11.456 72.9211 11.688 72.5291 11.856C72.1451 12.024 71.7411 12.108 71.3171 12.108C70.9171 12.108 70.5371 12.032 70.1771 11.88C69.8251 11.72 69.5211 11.504 69.2651 11.232C69.0091 10.96 68.8051 10.64 68.6531 10.272C68.5011 9.896 68.4251 9.496 68.4251 9.072C68.4251 8.648 68.4971 8.252 68.6411 7.884C68.7931 7.516 68.9971 7.196 69.2531 6.924C69.5171 6.652 69.8251 6.44 70.1771 6.288C70.5291 6.128 70.9091 6.048 71.3171 6.048C71.7491 6.048 72.1611 6.128 72.5531 6.288C72.9451 6.448 73.2851 6.672 73.5731 6.96L73.0091 7.572C72.8011 7.348 72.5491 7.172 72.2531 7.044C71.9571 6.908 71.6571 6.84 71.3531 6.84C71.0651 6.84 70.7931 6.9 70.5371 7.02C70.2891 7.132 70.0731 7.288 69.8891 7.488C69.7131 7.688 69.5691 7.924 69.4571 8.196C69.3531 8.468 69.3011 8.76 69.3011 9.072C69.3011 9.704 69.5011 10.236 69.9011 10.668C70.3011 11.1 70.7891 11.316 71.3651 11.316ZM74.3548 9.072C74.3548 8.64 74.4268 8.24 74.5708 7.872C74.7148 7.504 74.9108 7.184 75.1588 6.912C75.4148 6.64 75.7188 6.428 76.0708 6.276C76.4228 6.124 76.7988 6.048 77.1988 6.048C77.6068 6.048 77.9828 6.124 78.3268 6.276C78.6788 6.428 78.9828 6.64 79.2388 6.912C79.4948 7.184 79.6948 7.504 79.8388 7.872C79.9828 8.24 80.0547 8.64 80.0547 9.072C80.0547 9.504 79.9787 9.908 79.8268 10.284C79.6828 10.66 79.4828 10.984 79.2268 11.256C78.9788 11.52 78.6788 11.732 78.3268 11.892C77.9748 12.044 77.5988 12.12 77.1988 12.12C76.7988 12.12 76.4228 12.044 76.0708 11.892C75.7268 11.732 75.4268 11.516 75.1708 11.244C74.9228 10.972 74.7228 10.652 74.5708 10.284C74.4268 9.908 74.3548 9.504 74.3548 9.072ZM77.1988 11.34C77.7668 11.34 78.2388 11.128 78.6148 10.704C78.9988 10.272 79.1908 9.732 79.1908 9.084C79.1908 8.436 78.9988 7.896 78.6148 7.464C78.2388 7.032 77.7668 6.816 77.1988 6.816C76.6308 6.816 76.1588 7.032 75.7828 7.464C75.4068 7.896 75.2188 8.436 75.2188 9.084C75.2188 9.732 75.4068 10.272 75.7828 10.704C76.1588 11.128 76.6308 11.34 77.1988 11.34ZM81.5914 12V6.144H82.4674V7.332C82.6194 6.924 82.8354 6.608 83.1154 6.384C83.4034 6.152 83.7314 6.036 84.0994 6.036C84.2034 6.036 84.2994 6.044 84.3874 6.06C84.4754 6.068 84.5634 6.088 84.6514 6.12V6.912C84.5554 6.88 84.4514 6.856 84.3394 6.84C84.2354 6.816 84.1354 6.804 84.0394 6.804C83.6794 6.804 83.3634 6.908 83.0914 7.116C82.8274 7.324 82.6194 7.616 82.4674 7.992V12H81.5914Z" fill="black"/>
</svg>
