<svg width="12" height="12" viewBox="0 0 12 12" fill="none" xmlns="http://www.w3.org/2000/svg">
<path d="M11.7552 6.39628L5.61035 0.252485C5.53289 0.173463 5.4406 0.110488 5.33877 0.0671637C5.23694 0.0238394 5.12757 0.0010162 5.01691 0H0.841763C0.618513 0 0.404408 0.0886699 0.246547 0.246504C0.0886854 0.404337 0 0.618405 0 0.841616V5.01603C0.00093974 5.23888 0.0902422 5.45226 0.24832 5.60937L6.39319 11.7532C6.47137 11.8314 6.5642 11.8935 6.66639 11.9358C6.76858 11.9782 6.87812 12 6.98874 12C7.09936 12 7.20889 11.9782 7.31108 11.9358C7.41327 11.8935 7.50611 11.8314 7.58428 11.7532L11.751 7.58717C11.8296 7.50928 11.892 7.41668 11.9347 7.31466C11.9774 7.21264 11.9996 7.1032 12 6.9926C12.0004 6.88199 11.979 6.7724 11.937 6.67008C11.895 6.56776 11.8332 6.47472 11.7552 6.39628V6.39628ZM2.37798 3.07611C2.2398 3.07611 2.10472 3.03514 1.98982 2.95838C1.87493 2.88162 1.78538 2.77253 1.7325 2.64488C1.67962 2.51724 1.66578 2.37679 1.69274 2.24129C1.7197 2.10578 1.78624 1.98131 1.88395 1.88362C1.98166 1.78593 2.10615 1.7194 2.24168 1.69245C2.37721 1.66549 2.51768 1.67933 2.64535 1.7322C2.77301 1.78507 2.88213 1.8746 2.9589 1.98948C3.03567 2.10435 3.07664 2.23941 3.07664 2.37756C3.07664 2.56283 3.00303 2.74051 2.87201 2.87151C2.74098 3.00251 2.56328 3.07611 2.37798 3.07611V3.07611Z" fill="white"/>
</svg>
